{"title":"The Bodyguard[1992]DvDrip[Eng]-nenad023","uid":7026930,"size":838993080,"categoryP":"video","categoryS":"movies","magnet":"?xt=urn:btih:59b10d5e6aec5de72ad3e7660c5f77e9243956a9&amp;dn=The+Bodyguard%5B1992%5DDvDrip%5BEng%5D-nenad023&amp;tr=udp%3A%2F%2Ftracker.openbittorrent.com%3A80&amp;tr=udp%3A%2F%2Fopen.demonii.com%3A1337&amp;tr=udp%3A%2F%2Ftracker.coppersurfer.tk%3A6969&amp;tr=udp%3A%2F%2Fexodus.desync.com%3A6969","seeders":4,"leechers":0,"uploader":"nenadpopov","files":3,"time":1329052729,"description":"\n\nThe Bodyguard[1992]DvDrip[Eng]-nenad023\n\n\nGeneral\nComplete name                            : The Bodyguard[1992]DvDrip[Eng]-nenad023\nFormat                                   : AVI\nFormat/Info                              : Audio Video Interleave\nFile size                                : 800 MiB\nDuration                                 : 2h 4mn\nOverall bit rate                         : 902 Kbps\nWriting application                      : VirtualDubMod 1.5.4.1 (build 2178/release)\nWriting library                          : VirtualDubMod build 2178/release\n\nVideo\nID                                       : 0\nFormat                                   : MPEG-4 Visual\nFormat profile                           : Advanced Simple@L5\nFormat settings, BVOP                    : 1\nFormat settings, QPel                    : No\nFormat settings, GMC                     : No warppoints\nFormat settings, Matrix                  : Custom\nCodec ID                                 : XVID\nCodec ID/Hint                            : XviD\nDuration                                 : 2h 4mn\nBit rate                                 : 766 Kbps\nWidth                                    : 608 pixels\nHeight                                   : 320 pixels\nDisplay aspect ratio                     : 1.900\nFrame rate                               : 25.000 fps\nColor space                              : YUV\nChroma subsampling                       : 4:2:0\nBit depth                                : 8 bits\nScan type                                : Progressive\nCompression mode                         : Lossy\nBits/(Pixel*Frame)                       : 0.158\nStream size                              : 680 MiB (85%)\nWriting library                          : XviD 64\n\nAudio\nID                                       : 1\nFormat                                   : MPEG Audio\nFormat version                           : Version 1\nFormat profile                           : Layer 3\nMode                                     : Joint stereo\nMode extension                           : MS Stereo\nCodec ID                                 : 55\nCodec ID/Hint                            : MP3\nDuration                                 : 2h 4mn\nBit rate mode                            : Constant\nBit rate                                 : 128 Kbps\nChannel(s)                               : 2 channels\nSampling rate                            : 48.0 KHz\nCompression mode                         : Lossy\nStream size                              : 114 MiB (14%)\nAlignment                                : Aligned on interleaves\nInterleave, duration                     : 80 ms (2.00 video frames)\nInterleave, preload duration             : 504 ms\nWriting library                          : LAME3.97 \nEncoding settings                        : -m j -V 4 -q 2 -lowpass 17 -b 128\n\nnenad023\nIN MEMORIAM\nWhitney Houston (1963-2012)","torrent":{"xt":"urn:btih:59b10d5e6aec5de72ad3e7660c5f77e9243956a9","amp;dn":"The+Bodyguard%5B1992%5DDvDrip%5BEng%5D-nenad023","amp;tr":["udp%3A%2F%2Ftracker.openbittorrent.com%3A80","udp%3A%2F%2Fopen.demonii.com%3A1337","udp%3A%2F%2Ftracker.coppersurfer.tk%3A6969","udp%3A%2F%2Fexodus.desync.com%3A6969"],"infoHash":"59b10d5e6aec5de72ad3e7660c5f77e9243956a9","infoHashBuffer":{"type":"Buffer","data":[89,177,13,94,106,236,93,231,42,211,231,102,12,95,119,233,36,57,86,169]},"announce":[],"urlList":[]}}